<?xml version="1.0" encoding="utf-8"?>
<!-- Generator: Adobe Illustrator 26.2.1, SVG Export Plug-In . SVG Version: 6.00 Build 0)  -->
<svg version="1.1" id="Layer_1" xmlns="http://www.w3.org/2000/svg" xmlns:xlink="http://www.w3.org/1999/xlink" x="0px" y="0px"
	 viewBox="0 0 193.8 99.3" style="enable-background:new 0 0 193.8 99.3;" xml:space="preserve">
<style type="text/css">
	.st0{fill:#FFFFFF;}
	.st1{fill:#231F20;}
</style>
<g>
	<g id="XMLID_1347_">
		<g>
			<path class="st0" d="M6.7,34.7c-7,11-5.8,26.3,2,36.8c4.2,5.7,10.4,10.1,17.3,11.6s14.7-0.3,19.8-5.1
				C50,88.4,60.4,96.1,71.7,97.1s22.8-4.9,28.6-14.5c4.1,8.9,14.4,13.1,24.2,13.1c11.3,0,18.5-7.3,23.5-15.8
				c11.4,7.2,28,4.6,36.6-5.7c7.3-8.7,8.7-21.4,5.4-32.3c-1.4-4.6-3.5-9-6.6-12.6c-7.6-8.7-21.3-11.4-31.7-6.2
				c-0.3-7-7.9-14.1-14.2-17.1c-6.3-3.1-13.7-4.4-20.6-3.6C107.4,3.5,97.4,8.5,93.1,17c-3-6.4-9.6-10.8-16.5-12.2
				c-7-1.4-14.3,0-20.8,2.9c-6.8,3.1-13.3,8.4-14.9,15.7C28.9,18.3,13.7,23.7,6.7,34.7z"/>
		</g>
	</g>
	<g>
		<path class="st1" d="M152.8,24.9c6.5-3.2,14.4-3.1,21-0.1c7.5,3.4,12.1,10.2,14.3,17.9c4.2,14.6-0.7,32.3-16.2,37.6
			c-7.6,2.6-16,2-22.8-2.3c-1-0.6-2.3-0.2-2.9,0.8c-4.6,7.8-11.4,14.5-20.9,14.7c-9.1,0.3-18.9-3.5-23.1-12c-0.7-1.5-2.9-1.3-3.7,0
			c-5.6,9-16.2,14.4-26.8,13.5c-10.3-0.9-19.8-8.1-23.7-17.6c-0.6-1.5-2.3-2.1-3.6-0.9c-5.7,5.2-14.1,6.2-21.3,3.6
			c-7.2-2.7-13-8.8-16.1-15.7C1,50.8,5,34,18.4,26.8c6.7-3.6,14.8-4.3,21.9-1.3c1,0.4,2.4-0.5,2.6-1.5C45.3,14,56.2,8.6,65.4,6.9
			c10-1.8,21.1,1.6,25.8,11.2c0.7,1.4,3,1.4,3.7,0c5.2-9.9,17.5-14.4,28.2-13.8c6,0.3,12.1,2.2,17,5.6c4.3,2.9,9.1,7.6,9.5,13.1
			c0.2,2.7,4.5,2.7,4.3,0c-0.5-6.5-5-11.9-10-15.7c-5.6-4.2-12.4-6.5-19.3-7.2C112.1-1,97.3,4.3,91.2,15.9c1.2,0,2.4,0,3.7,0
			C89.4,4.9,76.6,0.8,65.1,2.7c-10.9,1.8-23.5,8.6-26.2,20.2c0.9-0.5,1.7-1,2.6-1.5C26.1,15,7.9,24.1,2.1,39.3
			c-6.2,16.3,1.7,36.8,17.8,44c9.1,4,20,3,27.5-3.8c-1.2-0.3-2.4-0.6-3.6-0.9C48.4,89.7,58.9,97.9,71,99.1
			c12.3,1.3,24.6-5.2,31.1-15.5c-1.2,0-2.4,0-3.7,0c4.8,9.8,16.3,14.4,26.7,14.2c11.1-0.3,19.2-7.7,24.6-16.8
			c-1,0.3-1.9,0.5-2.9,0.8c14.4,8.9,34.8,3.7,42.8-11.3c8.3-15.5,4.1-39.7-12.2-48.5c-8.3-4.5-18.4-4.8-26.9-0.7
			C148.2,22.4,150.4,26.1,152.8,24.9L152.8,24.9z"/>
	</g>
</g>
</svg>
